<svg width="339" height="63" viewBox="0 0 339 63" fill="none" xmlns="http://www.w3.org/2000/svg">
<path d="M15.976 58V50.08H18.76C19.0907 50.08 19.4 50.1227 19.688 50.208C19.9867 50.2933 20.2267 50.448 20.408 50.672C20.5893 50.896 20.68 51.2267 20.68 51.664V56.272C20.68 56.8907 20.5093 57.3333 20.168 57.6C19.8373 57.8667 19.3253 58 18.632 58H15.976ZM17 57.44H18.504C18.7173 57.44 18.9147 57.4133 19.096 57.36C19.2773 57.3067 19.4213 57.2 19.528 57.04C19.6347 56.88 19.688 56.6453 19.688 56.336V51.792C19.688 51.3867 19.592 51.0987 19.4 50.928C19.208 50.7573 18.9093 50.672 18.504 50.672H17V57.44ZM24.0916 58V50.08H28.0916V50.784H25.1316V53.488H27.4996V54.256H25.1316V57.296H28.0916V58H24.0916ZM32.923 58.096C32.123 58.096 31.547 57.9147 31.195 57.552C30.843 57.1893 30.667 56.6133 30.667 55.824V55.376H31.675V55.872C31.675 56.448 31.7817 56.864 31.995 57.12C32.2083 57.3653 32.5283 57.488 32.955 57.488C33.3497 57.488 33.675 57.3813 33.931 57.168C34.1977 56.9547 34.331 56.5707 34.331 56.016C34.331 55.6213 34.2563 55.3227 34.107 55.12C33.9683 54.9173 33.7603 54.7573 33.483 54.64C33.2057 54.5227 32.8643 54.3947 32.459 54.256C32.1283 54.1387 31.8297 53.9947 31.563 53.824C31.2963 53.6533 31.0883 53.4347 30.939 53.168C30.7897 52.9013 30.715 52.5653 30.715 52.16C30.715 51.4773 30.891 50.96 31.243 50.608C31.595 50.2453 32.1817 50.064 33.003 50.064C33.7177 50.064 34.2723 50.2187 34.667 50.528C35.0617 50.8373 35.259 51.2747 35.259 51.84V52.672H34.283V52.048C34.283 51.632 34.1763 51.3173 33.963 51.104C33.7497 50.8907 33.435 50.784 33.019 50.784C32.5603 50.784 32.2297 50.896 32.027 51.12C31.8243 51.3333 31.723 51.6693 31.723 52.128C31.723 52.4693 31.7977 52.7413 31.947 52.944C32.107 53.136 32.3097 53.2907 32.555 53.408C32.8003 53.5147 33.0617 53.6107 33.339 53.696C33.8403 53.856 34.235 54.0213 34.523 54.192C34.8217 54.3627 35.035 54.5813 35.163 54.848C35.291 55.1147 35.355 55.4613 35.355 55.888C35.355 56.6987 35.1257 57.2693 34.667 57.6C34.2083 57.9307 33.627 58.096 32.923 58.096ZM38.526 58V50.08H39.518V58H38.526ZM44.9995 58.144C44.5942 58.144 44.2315 58.096 43.9115 58C43.6022 57.904 43.3568 57.7173 43.1755 57.44C43.0048 57.1627 42.9195 56.7627 42.9195 56.24V51.744C42.9195 51.0507 43.1222 50.5813 43.5275 50.336C43.9435 50.0907 44.5248 49.968 45.2715 49.968C46.0182 49.968 46.5942 50.096 46.9995 50.352C47.4048 50.5973 47.6075 51.0613 47.6075 51.744V52.768H46.6475V51.712C46.6475 51.2747 46.5355 50.9813 46.3115 50.832C46.0875 50.672 45.7355 50.592 45.2555 50.592C44.8075 50.592 44.4662 50.672 44.2315 50.832C44.0075 50.9813 43.8955 51.2747 43.8955 51.712V56.432C43.8955 56.8907 44.0128 57.1947 44.2475 57.344C44.4822 57.4827 44.8182 57.552 45.2555 57.552C45.6608 57.552 45.9915 57.456 46.2475 57.264C46.5142 57.072 46.6475 56.7947 46.6475 56.432V54.8H45.4475V54.208H47.6075V58H46.8715L46.8235 57.264C46.7808 57.328 46.7382 57.3867 46.6955 57.44C46.6528 57.4827 46.6102 57.5253 46.5675 57.568C46.4288 57.7387 46.2262 57.8773 45.9595 57.984C45.7035 58.0907 45.3835 58.144 44.9995 58.144ZM50.9604 58V50.08H51.8404L54.7364 56V50.08H55.6164V58H54.7364L51.8564 52.32V58H50.9604ZM59.1697 58V50.08H63.1697V50.784H60.2097V53.488H62.5777V54.256H60.2097V57.296H63.1697V58H59.1697ZM66.1291 58V50.08H68.9131C69.2438 50.08 69.5531 50.1227 69.8411 50.208C70.1398 50.2933 70.3798 50.448 70.5611 50.672C70.7425 50.896 70.8331 51.2267 70.8331 51.664V56.272C70.8331 56.8907 70.6625 57.3333 70.3211 57.6C69.9905 57.8667 69.4785 58 68.7851 58H66.1291ZM67.1531 57.44H68.6571C68.8705 57.44 69.0678 57.4133 69.2491 57.36C69.4305 57.3067 69.5745 57.2 69.6811 57.04C69.7878 56.88 69.8411 56.6453 69.8411 56.336V51.792C69.8411 51.3867 69.7451 51.0987 69.5531 50.928C69.3611 50.7573 69.0625 50.672 68.6571 50.672H67.1531V57.44ZM80.8619 58.112C80.2859 58.112 79.8219 58 79.4699 57.776C79.1179 57.552 78.8619 57.2427 78.7019 56.848C78.5525 56.4533 78.4779 55.9947 78.4779 55.472C78.4779 54.832 78.6005 54.3147 78.8459 53.92C79.0912 53.5147 79.4539 53.2427 79.9339 53.104C79.8272 52.9653 79.7259 52.7733 79.6299 52.528C79.5445 52.272 79.5019 51.9733 79.5019 51.632C79.5232 51.088 79.6885 50.6613 79.9979 50.352C80.3179 50.0427 80.8085 49.888 81.4699 49.888C81.8005 49.888 82.0992 49.9093 82.3659 49.952C82.6432 49.9947 82.8779 50.048 83.0699 50.112C83.2619 50.1653 83.3952 50.2133 83.4699 50.256V51.024C83.4272 51.0027 83.3152 50.9707 83.1339 50.928C82.9632 50.8747 82.7499 50.8267 82.4939 50.784C82.2379 50.7307 81.9712 50.704 81.6939 50.704C81.3419 50.704 81.0699 50.7733 80.8779 50.912C80.6859 51.0507 80.5579 51.232 80.4939 51.456C80.4405 51.6693 80.4405 51.8987 80.4939 52.144C80.5472 52.3787 80.6379 52.6027 80.7659 52.816C80.8085 52.8907 80.8939 53.008 81.0219 53.168C81.1499 53.3173 81.2885 53.488 81.4379 53.68C81.5979 53.872 81.7579 54.064 81.9179 54.256C82.0779 54.4373 82.2165 54.5973 82.3339 54.736C82.4619 54.8747 82.5525 54.976 82.6059 55.04L82.6219 53.328H84.8619V54H83.3419C83.3419 54.3093 83.3419 54.5653 83.3419 54.768C83.3419 54.96 83.3365 55.1253 83.3259 55.264C83.3259 55.392 83.3205 55.5307 83.3099 55.68C83.6192 56 83.9125 56.288 84.1899 56.544C84.4672 56.8 84.6912 56.976 84.8619 57.072V58.032C84.6912 58.0107 84.4352 57.8667 84.0939 57.6C83.7525 57.3227 83.3899 56.9973 83.0059 56.624C82.8992 57.0293 82.7285 57.3387 82.4939 57.552C82.2699 57.7653 82.0139 57.9147 81.7259 58C81.4379 58.0747 81.1499 58.112 80.8619 58.112ZM80.8939 57.392C81.3419 57.392 81.6939 57.2747 81.9499 57.04C82.2165 56.7947 82.3659 56.4693 82.3979 56.064C82.0032 55.6267 81.6139 55.2 81.2299 54.784C80.8459 54.3573 80.5472 54 80.3339 53.712C80.0245 53.808 79.7739 53.9893 79.5819 54.256C79.4005 54.512 79.3099 54.9013 79.3099 55.424C79.2992 56.0747 79.4379 56.5653 79.7259 56.896C80.0245 57.2267 80.4139 57.392 80.8939 57.392ZM92.6385 58V50.08H95.4225C95.7532 50.08 96.0625 50.1227 96.3505 50.208C96.6492 50.2933 96.8892 50.448 97.0705 50.672C97.2518 50.896 97.3425 51.2267 97.3425 51.664V56.272C97.3425 56.8907 97.1718 57.3333 96.8305 57.6C96.4998 57.8667 95.9878 58 95.2945 58H92.6385ZM93.6625 57.44H95.1665C95.3798 57.44 95.5772 57.4133 95.7585 57.36C95.9398 57.3067 96.0838 57.2 96.1905 57.04C96.2972 56.88 96.3505 56.6453 96.3505 56.336V51.792C96.3505 51.3867 96.2545 51.0987 96.0625 50.928C95.8705 50.7573 95.5718 50.672 95.1665 50.672H93.6625V57.44ZM100.754 58V50.08H104.754V50.784H101.794V53.488H104.162V54.256H101.794V57.296H104.754V58H100.754ZM108.77 58L107.042 50.08H108.05L109.442 56.784H109.41L110.802 50.08H111.778L110.05 58H108.77ZM114.657 58V50.08H118.657V50.784H115.697V53.488H118.065V54.256H115.697V57.296H118.657V58H114.657ZM121.617 58V50.08H122.593V57.296H125.185V58H121.617ZM130.049 58.16C129.537 58.16 129.11 58.1067 128.769 58C128.428 57.8827 128.166 57.6747 127.985 57.376C127.814 57.0773 127.729 56.6613 127.729 56.128V51.728C127.729 51.0347 127.937 50.5707 128.353 50.336C128.769 50.0907 129.34 49.968 130.065 49.968C130.801 49.968 131.377 50.0907 131.793 50.336C132.209 50.5813 132.417 51.0453 132.417 51.728V56.128C132.417 56.672 132.326 57.0933 132.145 57.392C131.974 57.68 131.713 57.8827 131.361 58C131.009 58.1067 130.572 58.16 130.049 58.16ZM130.049 57.552C130.518 57.552 130.865 57.472 131.089 57.312C131.313 57.152 131.425 56.8587 131.425 56.432V51.712C131.425 51.264 131.308 50.9653 131.073 50.816C130.838 50.6667 130.497 50.592 130.049 50.592C129.612 50.592 129.276 50.6667 129.041 50.816C128.806 50.9653 128.689 51.264 128.689 51.712V56.432C128.689 56.8587 128.801 57.152 129.025 57.312C129.26 57.472 129.601 57.552 130.049 57.552ZM135.832 58V50.08H138.712C139.235 50.08 139.656 50.1867 139.976 50.4C140.307 50.6133 140.472 50.944 140.472 51.392V52.832C140.472 53.1307 140.424 53.4187 140.328 53.696C140.232 53.9733 140.046 54.2027 139.768 54.384C139.491 54.5547 139.07 54.64 138.504 54.64H136.872V58H135.832ZM136.872 54.048H138.216C138.632 54.048 138.947 53.9467 139.16 53.744C139.374 53.5307 139.48 53.1893 139.48 52.72V51.792C139.48 51.408 139.384 51.12 139.192 50.928C139 50.736 138.76 50.64 138.472 50.64H136.872V54.048ZM143.448 58V50.08H147.448V50.784H144.488V53.488H146.856V54.256H144.488V57.296H147.448V58H143.448ZM150.407 58V50.08H153.191C153.522 50.08 153.831 50.1227 154.119 50.208C154.418 50.2933 154.658 50.448 154.839 50.672C155.021 50.896 155.111 51.2267 155.111 51.664V56.272C155.111 56.8907 154.941 57.3333 154.599 57.6C154.269 57.8667 153.757 58 153.063 58H150.407ZM151.431 57.44H152.935C153.149 57.44 153.346 57.4133 153.527 57.36C153.709 57.3067 153.853 57.2 153.959 57.04C154.066 56.88 154.119 56.6453 154.119 56.336V51.792C154.119 51.3867 154.023 51.0987 153.831 50.928C153.639 50.7573 153.341 50.672 152.935 50.672H151.431V57.44ZM163.076 58V50.08H165.94C166.463 50.08 166.884 50.1867 167.204 50.4C167.524 50.6133 167.684 50.944 167.684 51.392V52.352C167.684 52.8427 167.524 53.216 167.204 53.472C167.055 53.6 166.879 53.6853 166.676 53.728C166.484 53.76 166.319 53.7813 166.18 53.792V53.776C166.393 53.776 166.596 53.7973 166.788 53.84C166.991 53.872 167.156 53.9467 167.284 54.064C167.444 54.192 167.567 54.352 167.652 54.544C167.748 54.736 167.796 54.9653 167.796 55.232V56.368C167.796 56.976 167.631 57.4027 167.3 57.648C166.969 57.8827 166.463 58 165.78 58H163.076ZM164.068 57.44H165.604C165.817 57.44 166.015 57.4187 166.196 57.376C166.377 57.3227 166.521 57.216 166.628 57.056C166.735 56.8853 166.788 56.6347 166.788 56.304V55.248C166.788 54.8747 166.676 54.6133 166.452 54.464C166.228 54.304 165.897 54.224 165.46 54.224H164.068V57.44ZM164.068 53.568H165.428C165.844 53.568 166.164 53.4827 166.388 53.312C166.612 53.1307 166.724 52.848 166.724 52.464V51.568C166.724 51.2587 166.623 51.0293 166.42 50.88C166.217 50.72 165.972 50.64 165.684 50.64H164.068V53.568ZM172.059 58V54.544L170.331 50.08H171.355L172.539 53.152L172.603 53.472L172.667 53.152L173.963 50.08H174.891L173.051 54.608V58H172.059Z" fill="#1066A5"/>
<path d="M203.432 47V18.104H192.152V12.44H222.104V18.104H210.824V47H203.432ZM225.65 47V12.44H233.042V47H225.65ZM229.106 47V41.336H251.378V47H229.106ZM229.106 32.12V26.552H249.698V32.12H229.106ZM229.106 18.104V12.44H250.802V18.104H229.106ZM270.752 47.48C268.256 47.48 265.952 47.048 263.84 46.184C261.728 45.288 259.888 44.04 258.32 42.44C256.784 40.84 255.584 38.952 254.72 36.776C253.856 34.568 253.424 32.168 253.424 29.576C253.424 26.984 253.84 24.616 254.672 22.472C255.536 20.328 256.736 18.472 258.272 16.904C259.84 15.304 261.68 14.088 263.792 13.256C265.904 12.392 268.224 11.96 270.752 11.96C273.6 11.96 276.16 12.52 278.432 13.64C280.736 14.728 282.608 16.28 284.048 18.296C285.52 20.28 286.416 22.616 286.736 25.304H279.536C279.12 22.84 278.112 20.984 276.512 19.736C274.912 18.456 273.008 17.816 270.8 17.816C268.848 17.816 267.12 18.28 265.616 19.208C264.144 20.136 262.992 21.48 262.16 23.24C261.328 24.968 260.912 27.064 260.912 29.528C260.912 32.024 261.328 34.184 262.16 36.008C263.024 37.8 264.208 39.192 265.712 40.184C267.216 41.144 268.944 41.624 270.896 41.624C272.976 41.624 274.816 41 276.416 39.752C278.016 38.504 279.056 36.648 279.536 34.184H286.832C286.416 36.872 285.472 39.224 284 41.24C282.528 43.224 280.656 44.76 278.384 45.848C276.112 46.936 273.568 47.48 270.752 47.48ZM290.384 47V12.44H297.776V47H290.384ZM312.752 47V12.44H320.144V47H312.752ZM293.84 26.168H316.112V31.832H293.84V26.168Z" fill="#0D67A5"/>
<path d="M18.768 47.48C16.4 47.48 14.208 47.048 12.192 46.184C10.208 45.288 8.48 44.056 7.008 42.488C5.536 40.888 4.4 39.016 3.6 36.872C2.8 34.696 2.4 32.312 2.4 29.72C2.4 27.128 2.8 24.76 3.6 22.616C4.4 20.44 5.52 18.568 6.96 17C8.432 15.4 10.16 14.168 12.144 13.304C14.16 12.408 16.352 11.96 18.72 11.96C21.312 11.96 23.632 12.488 25.68 13.544C27.76 14.6 29.456 16.088 30.768 18.008C32.112 19.928 32.944 22.168 33.264 24.728H29.328C28.944 21.88 27.808 19.64 25.92 18.008C24.064 16.344 21.68 15.512 18.768 15.512C16.304 15.512 14.144 16.12 12.288 17.336C10.432 18.52 8.992 20.184 7.968 22.328C6.944 24.44 6.432 26.904 6.432 29.72C6.432 32.536 6.944 35.016 7.968 37.16C8.992 39.272 10.432 40.936 12.288 42.152C14.144 43.336 16.288 43.928 18.72 43.928C21.696 43.928 24.128 43.096 26.016 41.432C27.936 39.768 29.072 37.528 29.424 34.712H33.36C33.04 37.272 32.208 39.512 30.864 41.432C29.552 43.352 27.856 44.84 25.776 45.896C23.728 46.952 21.392 47.48 18.768 47.48ZM39.7061 47V12.44H43.6421V47H39.7061ZM62.8421 47V12.44H66.7781V47H62.8421ZM41.7221 27.272H64.5701V30.728H41.7221V27.272ZM75.0499 47V12.44H78.9859V47H75.0499ZM77.0659 47V43.544H98.1859V47H77.0659ZM77.0659 30.728V27.272H96.4579V30.728H77.0659ZM77.0659 15.896V12.44H97.8019V15.896H77.0659ZM105.659 47V12.44H119.387C121.851 12.44 123.947 12.84 125.675 13.64C127.403 14.44 128.715 15.592 129.611 17.096C130.539 18.6 131.003 20.408 131.003 22.52C131.003 24.632 130.539 26.456 129.611 27.992C128.715 29.496 127.403 30.664 125.675 31.496C123.947 32.328 121.851 32.744 119.387 32.744H108.539V29.288H119.243C121.803 29.288 123.739 28.712 125.051 27.56C126.395 26.376 127.067 24.696 127.067 22.52C127.067 20.344 126.411 18.696 125.099 17.576C123.787 16.456 121.835 15.896 119.243 15.896H109.595V47H105.659ZM137.159 47V12.44H141.095V47H137.159ZM164.083 47.48C161.683 47.48 159.475 47.048 157.459 46.184C155.475 45.288 153.747 44.04 152.275 42.44C150.803 40.808 149.651 38.904 148.819 36.728C148.019 34.552 147.619 32.168 147.619 29.576C147.619 26.152 148.323 23.112 149.731 20.456C151.139 17.8 153.075 15.72 155.539 14.216C158.035 12.712 160.867 11.96 164.035 11.96C167.267 11.96 170.115 12.712 172.579 14.216C175.075 15.72 177.027 17.8 178.435 20.456C179.843 23.112 180.547 26.168 180.547 29.624C180.547 32.216 180.131 34.6 179.299 36.776C178.499 38.952 177.363 40.84 175.891 42.44C174.419 44.04 172.675 45.288 170.659 46.184C168.643 47.048 166.451 47.48 164.083 47.48ZM164.035 43.928C166.499 43.928 168.659 43.32 170.515 42.104C172.403 40.856 173.875 39.144 174.931 36.968C175.987 34.792 176.515 32.312 176.515 29.528C176.515 26.776 175.987 24.344 174.931 22.232C173.907 20.12 172.451 18.472 170.563 17.288C168.707 16.104 166.531 15.512 164.035 15.512C161.539 15.512 159.363 16.104 157.507 17.288C155.651 18.472 154.211 20.12 153.187 22.232C152.163 24.312 151.651 26.744 151.651 29.528C151.651 32.344 152.163 34.84 153.187 37.016C154.243 39.16 155.699 40.856 157.555 42.104C159.411 43.32 161.571 43.928 164.035 43.928Z" fill="#0D67A5"/>
<rect x="185.5" y="2.5" width="143" height="53" stroke="#0D67A5" stroke-width="5"/>
</svg>
